<svg width="42" height="42" viewBox="0 0 42 42" fill="none" xmlns="http://www.w3.org/2000/svg">
<path d="M0 6C0 2.68629 2.68629 0 6 0H36C39.3137 0 42 2.68629 42 6V36C42 39.3137 39.3137 42 36 42H6C2.68629 42 0 39.3137 0 36V6Z" fill="#30345E" fill-opacity="0.16"/>
<ellipse cx="17.75" cy="15.5833" rx="4.33333" ry="4.33333" stroke="#30345E" stroke-width="1.5" stroke-linecap="round" stroke-linejoin="round"/>
<path d="M11.25 30.75V28.5833C11.25 26.1901 13.1901 24.25 15.5833 24.25H19.9167C22.3099 24.25 24.25 26.1901 24.25 28.5833V30.75" stroke="#30345E" stroke-width="1.5" stroke-linecap="round" stroke-linejoin="round"/>
<path d="M25.3334 11.3906C27.2508 11.8816 28.5919 13.6093 28.5919 15.5885C28.5919 17.5678 27.2508 19.2955 25.3334 19.7865" stroke="#30345E" stroke-width="1.5" stroke-linecap="round" stroke-linejoin="round"/>
<path d="M30.75 30.7499V28.5832C30.7387 26.6165 29.4043 24.904 27.5 24.4124" stroke="#30345E" stroke-width="1.5" stroke-linecap="round" stroke-linejoin="round"/>
</svg>
