<svg width="42" height="42" viewBox="0 0 42 42" fill="none" xmlns="http://www.w3.org/2000/svg">
<path d="M0 6C0 2.68629 2.68629 0 6 0H36C39.3137 0 42 2.68629 42 6V36C42 39.3137 39.3137 42 36 42H6C2.68629 42 0 39.3137 0 36V6Z" fill="#FF4C51" fill-opacity="0.16"/>
<ellipse cx="17.75" cy="15.5833" rx="4.33333" ry="4.33333" stroke="#FF4C51" stroke-width="1.5" stroke-linecap="round" stroke-linejoin="round"/>
<path d="M11.25 30.75V28.5833C11.25 26.1901 13.1901 24.25 15.5833 24.25H19.9167C22.3099 24.25 24.25 26.1901 24.25 28.5833V30.75" stroke="#FF4C51" stroke-width="1.5" stroke-linecap="round" stroke-linejoin="round"/>
<path d="M25.3333 19.1667C24.9191 19.1667 24.5833 19.5025 24.5833 19.9167C24.5833 20.331 24.9191 20.6667 25.3333 20.6667V19.1667ZM31.8333 20.6667C32.2475 20.6667 32.5833 20.331 32.5833 19.9167C32.5833 19.5025 32.2475 19.1667 31.8333 19.1667V20.6667ZM29.3333 16.6667C29.3333 16.2525 28.9975 15.9167 28.5833 15.9167C28.1691 15.9167 27.8333 16.2525 27.8333 16.6667H29.3333ZM27.8333 23.1667C27.8333 23.581 28.1691 23.9167 28.5833 23.9167C28.9975 23.9167 29.3333 23.581 29.3333 23.1667H27.8333ZM25.3333 20.6667H31.8333V19.1667H25.3333V20.6667ZM27.8333 16.6667V23.1667H29.3333V16.6667H27.8333Z" fill="#FF4C51"/>
</svg>
